<?xml version="1.0" encoding="utf-8"?>
<!-- Generator: Adobe Illustrator 16.0.3, SVG Export Plug-In . SVG Version: 6.00 Build 0)  -->
<!DOCTYPE svg PUBLIC "-//W3C//DTD SVG 1.1//EN" "http://www.w3.org/Graphics/SVG/1.1/DTD/svg11.dtd">
<svg version="1.1" id="Layer_1" xmlns="http://www.w3.org/2000/svg" xmlns:xlink="http://www.w3.org/1999/xlink" x="0px" y="0px"
	 width="600px" height="600px" viewBox="0 0 600 600" enable-background="new 0 0 600 600" xml:space="preserve">
<rect y="-1.143" fill="#232D32" width="601.171" height="601.143"/>
<path id="_x30_6-Movie_Clapper_1_" fill="#3DC6F0" d="M222.895,204.396c-0.493-4.155-1.967-8.013-4.189-11.33l199.029-66.458
	l-10.445-31.296c-1.521-4.54-6.438-7-10.982-5.481l-216.503,72.283c-4.546,1.515-7.002,6.438-5.48,10.987l5.12,15.34
	c-5.116,4.747-8.323,11.519-8.323,19.032c0,9.736,5.38,18.228,13.319,22.679v122.578c0,4.803,3.889,8.684,8.679,8.684h228.249
	c4.791,0,8.684-3.881,8.684-8.684V204.396H222.895z M349.751,115.578l26.349-8.793l-6.339,25.635l-26.353,8.794L349.751,115.578z
	 M284.649,137.322l26.353-8.799l-6.343,25.625l-26.351,8.799L284.649,137.322z M197.1,220.716c-7.296,0-13.233-5.945-13.233-13.233
	c0-7.303,5.938-13.241,13.233-13.241c7.302,0,13.239,5.938,13.239,13.241C210.339,214.771,204.401,220.716,197.1,220.716z
	 M219.548,159.055l26.353-8.798l-6.341,25.635l-26.353,8.794L219.548,159.055z M245.433,233.7h-27.781l14.132-22.303h27.784
	L245.433,233.7z M300.421,211.397h27.778L314.074,233.7h-27.786L300.421,211.397z M293.599,319.185v-58.832l46.852,29.412
	L293.599,319.185z M382.7,233.7h-27.779l14.134-22.303h27.777L382.7,233.7z"/>
<text transform="matrix(1 0 0 1 38.811 507.7051)" fill="#3DC6F0" font-family="'JosefinSans-Regular'" font-size="109.8292" letter-spacing="10">O’FILMS</text>
<rect y="509" display="none" fill="#3DC6F0" width="601" height="91"/>
<rect x="-1" display="none" fill="#3DC6F0" width="601" height="91"/>
</svg>
